<svg xmlns="http://www.w3.org/2000/svg" viewBox="0 0 48 32" width="48" height="32" role="img" aria-label="Apple Pay">
  <rect width="48" height="32" rx="4" fill="#000000"/>
  <g fill="#FFFFFF" transform="translate(8 9)">
    <path d="M5.4 2.3c.4-.5.7-1.2.6-1.9-.6 0-1.4.4-1.8.9-.4.4-.7 1.1-.6 1.8.7.1 1.4-.3 1.8-.8zm.6.9c-1 0-1.8.6-2.3.6-.5 0-1.2-.5-2-.5-1 0-2 .6-2.5 1.6-1.1 1.9-.3 4.7.8 6.2.5.7 1.1 1.5 1.9 1.5.8 0 1.1-.5 2-.5.9 0 1.2.5 2 .5.8 0 1.4-.7 1.9-1.5.6-.8.8-1.6.9-1.7-.1 0-1.7-.6-1.7-2.5 0-1.6 1.3-2.3 1.4-2.4-.7-1-1.9-1.3-2.4-1.3z"/>
    <text x="14" y="11" font-family="Helvetica, Arial, sans-serif" font-size="9" font-weight="600">Pay</text>
  </g>
</svg>
