<svg xmlns="http://www.w3.org/2000/svg" viewBox="0 0 48 32" width="48" height="32" role="img" aria-label="Visa">
  <rect width="48" height="32" rx="4" fill="#ffffff" stroke="#E5E7EB"/>
  <g transform="translate(6 10)">
    <path d="M14.6 0L11.3 12h-3.3L5.4 2.3c-.2-.6-.3-.8-.8-1.1C3.8.8 2.6.4 1.5.2L1.6 0h5.3c.7 0 1.3.5 1.4 1.3l1 5.4L11.7 0h2.9zM27.7 8.1c0-2.8-3.9-3-3.9-4.2 0-.4.4-.8 1.2-.9.4-.1 1.5-.1 2.8.5l.5-2.3C27.6.8 26.7.6 25.6.6c-2.7 0-4.7 1.5-4.7 3.5 0 1.5 1.4 2.4 2.4 2.9 1.1.5 1.4.9 1.4 1.4 0 .8-.9 1.1-1.7 1.1-1.5 0-2.3-.4-2.9-.7L19.5 11c.7.3 2 .6 3.4.6 2.9 0 4.7-1.4 4.8-3.5M34.7 12h2.5L35 0h-2.3c-.5 0-1 .3-1.2.8L27.6 12h2.9l.6-1.6h3.5l.1 1.6zm-3-3.8l1.4-3.9.8 3.9h-2.2zM18.5 0L16.2 12h-2.7L15.7 0h2.8z" fill="#1A1F71"/>
  </g>
</svg>
